<svg xmlns="http://www.w3.org/2000/svg" width="16" height="16">
    <path fill="#222" d="M3 1a.998.998 0 0 0-.969.758l-1 4A.979.979 0 0 0 1 6v.04c-.563.093-1 .562-1 1.155v4.614c0 .59.438 1.058 1 1.152V14.5c0 .277.223.5.5.5h2c.277 0 .5-.223.5-.5V13h8v1.5c0 .277.223.5.5.5h2c.277 0 .5-.223.5-.5v-1.54c.566-.093 1-.562 1-1.155V7.19c0-.59-.434-1.058-1-1.152V6c0-.082-.008-.164-.027-.242l-1-4A1.003 1.003 0 0 0 13 1zm.781 2h8.438l.75 3H3.03zM3.5 8a1.5 1.5 0 1 1 0 3 1.5 1.5 0 0 1 0-3zm9 0a1.5 1.5 0 1 1 0 3 1.5 1.5 0 0 1 0-3zm0 0"/>
</svg>
