<svg xmlns="http://www.w3.org/2000/svg" width="16" height="16">
    <path fill="#222" d="M5 12.004v1h.008c-.004.262.101.516.285.707l2 1.996a1 1 0 0 0 1.414 0l2-1.996a1.01 1.01 0 0 0 .29-.707H11v-1zM10 2v1c0 .258.129.527.313.719L12.563 6l-2.25 2.281C10.129 8.473 10 8.742 10 9v1h1c.309 0 .55-.09.75-.281L15.406 6 11.75 2.281C11.55 2.09 11.309 2 11 2zM6 2v1c0 .258-.129.527-.313.719L3.438 6l2.25 2.281C5.872 8.473 6 8.742 6 9v1H5c-.309 0-.55-.09-.75-.281L.594 6 4.25 2.281C4.45 2.09 4.691 2 5 2zm0 0"/>
</svg>
