<?xml version="1.0" encoding="UTF-8"?>
<svg height="16px" viewBox="0 0 16 16" width="16px" xmlns="http://www.w3.org/2000/svg">
    <path d="m 5 0 c -1.660156 0 -3 1.339844 -3 3 v 10 c 0 1.660156 1.339844 3 3 3 h 6 c 1.660156 0 3 -1.339844 3 -3 v -2.558594 l -2 2.003906 v 0.554688 c 0 0.554688 -0.445312 1 -1 1 h -5 v -12 h 5 c 0.554688 0 1 0.445312 1 1 v 2.574219 l 2 -2.003907 v -0.570312 c 0 -1.660156 -1.339844 -3 -3 -3 z m 9.25 5 c -0.167969 0.003906 -0.332031 0.070312 -0.453125 0.1875 l -5.796875 5.808594 v 2.003906 h 2.03125 l 5.800781 -5.8125 c 0.238281 -0.242188 0.210938 -0.757812 0 -0.96875 l -1.03125 -1.03125 c -0.125 -0.125 -0.335937 -0.199219 -0.550781 -0.1875 z m 0 0" fill="#241f31"/>
</svg>
