<?xml version="1.0" encoding="UTF-8"?>
<svg height="128px" viewBox="0 0 128 128" width="128px" xmlns="http://www.w3.org/2000/svg" xmlns:xlink="http://www.w3.org/1999/xlink">
    <linearGradient id="a" gradientUnits="userSpaceOnUse" x1="100" x2="108" y1="352" y2="352">
        <stop offset="0" stop-color="#ffa348"/>
        <stop offset="0.5" stop-color="#ffbe6f"/>
        <stop offset="1" stop-color="#ffa348"/>
    </linearGradient>
    <linearGradient id="b" gradientUnits="userSpaceOnUse" x1="20" x2="24" y1="120" y2="120">
        <stop offset="0" stop-color="#ff7800"/>
        <stop offset="0.5" stop-color="#ffa348"/>
        <stop offset="1" stop-color="#ff7800"/>
    </linearGradient>
    <linearGradient id="c" gradientUnits="userSpaceOnUse">
        <stop offset="0" stop-color="#9a9996"/>
        <stop offset="1" stop-color="#f6f5f4"/>
    </linearGradient>
    <linearGradient id="d" gradientTransform="matrix(-0.965926 -0.258819 -0.258819 0.965926 -101.511688 -103.49939)" x1="-231.10257" x2="-227.10257" xlink:href="#c" y1="131.796356" y2="131.796356"/>
    <linearGradient id="e" gradientUnits="userSpaceOnUse">
        <stop offset="0" stop-color="#f6f5f4"/>
        <stop offset="1" stop-color="#9a9996"/>
    </linearGradient>
    <linearGradient id="f" gradientTransform="matrix(-0.965926 -0.258819 -0.12943 0.483039 -113.518532 -58.68924)" x1="-221.10257" x2="-237.10257" xlink:href="#e" y1="92.796349" y2="92.796349"/>
    <linearGradient id="g" gradientTransform="matrix(-0.965926 -0.258819 -0.258819 0.965926 -101.512039 -103.499413)" x1="-231.10257" x2="-227.10257" xlink:href="#c" y1="131.796356" y2="131.796356"/>
    <linearGradient id="h" gradientUnits="userSpaceOnUse" x1="88.039268" x2="103.494011" y1="43.360554" y2="47.501637">
        <stop offset="0" stop-color="#ff7800"/>
        <stop offset="0.25" stop-color="#ffa348"/>
        <stop offset="0.5" stop-color="#e25f00"/>
        <stop offset="0.75" stop-color="#d45200"/>
        <stop offset="1" stop-color="#c64600"/>
    </linearGradient>
    <linearGradient id="i" gradientTransform="matrix(-0.965926 -0.258819 -0.12943 0.483039 -113.518883 -58.689247)" x1="-221.10257" x2="-237.10257" xlink:href="#e" y1="92.796349" y2="92.796349"/>
    <path d="m 28 24 h 72 c 4.417969 0 8 3.582031 8 8 v 80 c 0 4.417969 -3.582031 8 -8 8 h -72 c -4.417969 0 -8 -3.582031 -8 -8 v -80 c 0 -4.417969 3.582031 -8 8 -8 z m 0 0" fill="url(#a)"/>
    <path d="m 24 96 c -2.214844 0 -4 1.785156 -4 4 v 16 c 0 2.214844 1.785156 4 4 4 h 8 v -24 z m 0 0" fill="url(#b)"/>
    <path d="m 28 8 h 72 c 4.417969 0 8 3.582031 8 8 v 80 c 0 4.417969 -3.582031 8 -8 8 h -72 c -4.417969 0 -8 -3.582031 -8 -8 v -80 c 0 -4.417969 3.582031 -8 8 -8 z m 0 0" fill="#ffd7ad"/>
    <path d="m 40 76 h 4 v 4 h -4 z m 0 0" fill="#ff7800"/>
    <path d="m 40 68 h 4 v 4 h -4 z m 0 0" fill="#ff7800"/>
    <path d="m 40 32 v 16 h 20 v -4 h 36 v -12 z m 0 20 v 8 h 28 v -4 h 28 v -4 z m 8 16 v 4 h 28 v -4 z m 0 8 v 4 h 16 v -4 z m 0 0" fill="#ffa348"/>
    <path d="m 40 20 h 24 v 4 h -24 z m 0 0" fill="#e66100"/>
    <path d="m 20 88 v 12 c 0 2.214844 1.785156 4 4 4 h 8 v -16 z m 0 0" fill="#c64600"/>
    <path d="m 20 72 h 12 v 16 h -12 z m 0 0" fill="#d45200"/>
    <path d="m 20 56 h 12 v 16 h -12 z m 0 0" fill="#e25e00"/>
    <path d="m 20 40 h 12 v 16 h -12 z m 0 0" fill="#f06b00"/>
    <path d="m 20 38 h 12 v 2 h -12 z m 0 0" fill="#ffa348"/>
    <path d="m 24 8 c -2.214844 0 -4 1.785156 -4 4 v 10 h 12 v -14 z m 0 0" fill="#ffbe6f"/>
    <path d="m 114.605469 21.488281 l -5.796875 -1.550781 c -0.203125 -0.054688 -0.402344 -0.074219 -0.597656 -0.066406 c -0.851563 0.03125 -1.617188 0.613281 -1.851563 1.480468 c -0.285156 1.070313 0.34375 2.164063 1.414063 2.449219 l 7.726562 2.070313 l 0.519531 -1.929688 c 0.285157 -1.070312 -0.34375 -2.164062 -1.414062 -2.453125 z m 0 0" fill="#c0bfbc"/>
    <path d="m 86.449219 80.203125 c -1.066407 -0.285156 -2.164063 0.347656 -2.449219 1.414063 l -0.519531 1.933593 c -0.285157 1.066407 0.347656 2.164063 1.417969 2.449219 c 1.066406 0.285156 2.160156 -0.347656 2.449218 -1.414062 l 0.515625 -1.933594 c 0.285157 -1.066406 -0.347656 -2.160156 -1.414062 -2.449219 z m 0 0" fill="url(#d)"/>
    <path d="m 99.503906 11.417969 c -1.703125 0.066406 -3.234375 1.226562 -3.699218 2.964843 l -4.144532 15.453126 l -0.753906 2.832031 l -0.28125 1.03125 c 0 0.003906 0.003906 0.003906 0 0.003906 l -4.140625 15.453125 c -2.070313 7.726562 -7.246094 27.046875 -2.484375 32.460938 l 3.863281 1.039062 c 6.832031 -2.3125 12.007813 -21.632812 14.078125 -29.359375 l 4.140625 -15.453125 l 0.277344 -1.039062 l 0.757813 -2.824219 l 4.144531 -15.457031 c 0.570312 -2.140626 -0.691407 -4.324219 -2.832031 -4.898438 l -7.726563 -2.070312 c -0.402344 -0.109376 -0.804687 -0.148438 -1.199219 -0.136719 z m 0 0" fill="#ff7800"/>
    <path d="m 103.496094 47.5 l -15.457032 -4.140625 l -0.515624 1.933594 l 15.453124 4.140625 z m 0 0" fill="url(#f)"/>
    <path d="m 111.636719 24.835938 l -0.515625 1.933593 l -0.519532 1.929688 l -4.140624 15.457031 c -0.285157 1.070312 0.34375 2.164062 1.414062 2.449219 c 1.070312 0.285156 2.164062 -0.34375 2.449219 -1.414063 l 4.140625 -15.453125 l 0.519531 -1.933593 l 0.515625 -1.933594 l -1.929688 -0.515625 z m 0 0" fill="#c0bfbc"/>
    <path d="m 114.605469 21.488281 l -5.796875 -1.550781 c -0.203125 -0.054688 -0.402344 -0.074219 -0.597656 -0.066406 c -0.851563 0.03125 -1.617188 0.613281 -1.851563 1.480468 c -0.285156 1.070313 0.34375 2.164063 1.414063 2.449219 l 7.726562 2.070313 l 0.519531 -1.929688 c 0.285157 -1.070312 -0.34375 -2.164062 -1.414062 -2.453125 z m 0 0" fill="#c0bfbc"/>
    <path d="m 86.449219 80.203125 c -1.066407 -0.285156 -2.164063 0.347656 -2.449219 1.414063 l -0.519531 1.933593 c -0.285157 1.066407 0.347656 2.164063 1.414062 2.449219 c 1.070313 0.285156 2.164063 -0.347656 2.449219 -1.414062 l 0.519531 -1.933594 c 0.285157 -1.066406 -0.347656 -2.160156 -1.414062 -2.449219 z m 0 0" fill="url(#g)"/>
    <path d="m 111.636719 24.835938 l -0.515625 1.933593 l -0.519532 1.929688 l -4.140624 15.457031 c -0.285157 1.070312 0.34375 2.164062 1.414062 2.449219 c 1.070312 0.285156 2.164062 -0.34375 2.449219 -1.414063 l 4.140625 -15.453125 l 0.519531 -1.933593 l 0.515625 -1.933594 l -1.929688 -0.515625 z m 0 0" fill="#c0bfbc"/>
    <path d="m 99.503906 11.417969 c -1.703125 0.066406 -3.234375 1.226562 -3.699218 2.964843 l -4.144532 15.453126 l -0.757812 2.832031 l -0.277344 1.03125 v 0.003906 l -4.140625 15.453125 c -2.070313 7.726562 -7.246094 27.046875 -2.484375 32.460938 l 3.863281 1.035156 c 6.832031 -2.308594 12.007813 -21.628906 14.078125 -29.355469 l 4.140625 -15.457031 l 0.277344 -1.035156 l 0.757813 -2.828126 l 4.140624 -15.453124 c 0.574219 -2.140626 -0.6875 -4.324219 -2.828124 -4.898438 l -7.726563 -2.070312 c -0.402344 -0.109376 -0.804687 -0.148438 -1.199219 -0.136719 z m 0 0" fill="url(#h)"/>
    <path d="m 103.492188 47.5 l -15.453126 -4.140625 l -0.519531 1.933594 l 15.457031 4.140625 z m 0 0" fill="url(#i)"/>
</svg>
